<svg xmlns="http://www.w3.org/2000/svg" width="420" height="700" viewBox="0 0 420 700">
<defs>
  <linearGradient id="bg" x1="0" y1="0" x2="1" y2="1">
    <stop offset="0" stop-color="#080b12"/>
    <stop offset="0.55" stop-color="#121022"/>
    <stop offset="1" stop-color="#020305"/>
  </linearGradient>
  <radialGradient id="mist" cx="50%" cy="40%" r="65%">
    <stop offset="0" stop-color="#5d4a7c" stop-opacity=".55"/>
    <stop offset=".65" stop-color="#1a1f33" stop-opacity=".18"/>
    <stop offset="1" stop-color="#000" stop-opacity="0"/>
  </radialGradient>
  <filter id="glow">
    <feGaussianBlur stdDeviation="5" result="b"/>
    <feMerge><feMergeNode in="b"/><feMergeNode in="SourceGraphic"/></feMerge>
  </filter>
</defs>
<rect width="420" height="700" rx="28" fill="url(#bg)"/>
<rect x="18" y="18" width="384" height="664" rx="22" fill="none" stroke="#b08a4d" stroke-width="4"/>
<rect x="34" y="34" width="352" height="632" rx="18" fill="none" stroke="#6f552e" stroke-width="1.5"/>
<circle cx="210" cy="245" r="180" fill="url(#mist)"/>
<g fill="none" stroke="#6f552e" stroke-width="1.4" opacity=".8">
  <path d="M54 75 H366 M54 625 H366"/>
  <path d="M72 52 V648 M348 52 V648"/>
  <path d="M44 110 C90 75 135 68 180 80"/>
  <path d="M376 110 C330 75 285 68 240 80"/>
</g>
<circle cx="85" cy="125" r="3" fill="#d6c482" opacity=".85"/><circle cx="130" cy="90" r="2" fill="#d6c482" opacity=".85"/><circle cx="285" cy="105" r="3" fill="#d6c482" opacity=".85"/><circle cx="325" cy="155" r="2" fill="#d6c482" opacity=".85"/><circle cx="95" cy="300" r="2" fill="#d6c482" opacity=".85"/><circle cx="335" cy="320" r="3" fill="#d6c482" opacity=".85"/><circle cx="150" cy="175" r="2" fill="#d6c482" opacity=".85"/><circle cx="270" cy="210" r="2" fill="#d6c482" opacity=".85"/>
<g filter="url(#glow)">
  <circle cx="210" cy="275" r="105" fill="none" stroke="#9a6bb5" stroke-width="3"/>
  <circle cx="210" cy="275" r="72" fill="none" stroke="#b08a4d" stroke-width="2"/>
  <path d="M210 145 L235 245 L335 275 L235 305 L210 405 L185 305 L85 275 L185 245 Z" fill="none" stroke="#d7b56d" stroke-width="4"/>
  <circle cx="210" cy="275" r="18" fill="#8f243c"/>
  <path d="M145 275 Q210 220 275 275 Q210 330 145 275Z" fill="none" stroke="#d8c4e3" stroke-width="4"/>
  <circle cx="210" cy="275" r="8" fill="#d8c4e3"/>
</g>

<g font-family="serif" text-anchor="middle">
  <text x="210" y="565" font-size="42" fill="#d7b56d">人生再点火</text>
  <text x="210" y="600" font-size="17" letter-spacing="4" fill="#8b75a6">THE HIDDEN BLUEPRINT</text>
  <text x="210" y="645" font-size="16" fill="#806b43">ARCANA 0</text>
</g>
</svg>